PathFileType	4	(X/Y/Z)	E:\Studenten\Marcel_BSc\Ayumi_25_09_2024\25-09-2024\static_00.trc
DataRate	CameraRate	NumFrames	NumMarkers	Units	OrigDataRate	OrigDataStartFrame	OrigNumFrames
200.0	200.0	4	62	mm	200.0	74	295	
Frame#	Time	LASI			RASI			RSACR			LSACR			USACR			LBAR			RBAR			RHEE			RMT1			RMT5			RMT2			LHEE			LMT1			LMT5			LMT2			LMMAL			LMFC			LLFC			LLMAL			LTIB4			LTIB2			LTIB3			LTIB1			RMMAL			RMFC			RLFC			RLMAL			RTIB1			RTIB2			RTIB3			RTHI1			RTHI4			RTHI3			RTHI2			LTHI1			LTHI4			LTHI3			LTHI2			FHD			LBHD			RBHD			C7			T10			CLAV			LSHO			RSHO			LRAD			LUL			LRFIN			RRAD			RUL			RUFIN			RLEP			RMEP			LLEP			LMEP			LDUPA			LMUPA			LUUPA			RDUPA			RUUPA			RMUPA			
		X1	Y1	Z1	X2	Y2	Z2	X3	Y3	Z3	X4	Y4	Z4	X5	Y5	Z5	X6	Y6	Z6	X7	Y7	Z7	X8	Y8	Z8	X9	Y9	Z9	X10	Y10	Z10	X11	Y11	Z11	X12	Y12	Z12	X13	Y13	Z13	X14	Y14	Z14	X15	Y15	Z15	X16	Y16	Z16	X17	Y17	Z17	X18	Y18	Z18	X19	Y19	Z19	X20	Y20	Z20	X21	Y21	Z21	X22	Y22	Z22	X23	Y23	Z23	X24	Y24	Z24	X25	Y25	Z25	X26	Y26	Z26	X27	Y27	Z27	X28	Y28	Z28	X29	Y29	Z29	X30	Y30	Z30	X31	Y31	Z31	X32	Y32	Z32	X33	Y33	Z33	X34	Y34	Z34	X35	Y35	Z35	X36	Y36	Z36	X37	Y37	Z37	X38	Y38	Z38	X39	Y39	Z39	X40	Y40	Z40	X41	Y41	Z41	X42	Y42	Z42	X43	Y43	Z43	X44	Y44	Z44	X45	Y45	Z45	X46	Y46	Z46	X47	Y47	Z47	X48	Y48	Z48	X49	Y49	Z49	X50	Y50	Z50	X51	Y51	Z51	X52	Y52	Z52	X53	Y53	Z53	X54	Y54	Z54	X55	Y55	Z55	X56	Y56	Z56	X57	Y57	Z57	X58	Y58	Z58	X59	Y59	Z59	X60	Y60	Z60	X61	Y61	Z61	X62	Y62	Z62	
74	0.365	133.63255	918.03418	-762.53979	129.38286	918.65759	-984.88751	309.11667	950.41669	-912.62677	308.28601	953.62726	-852.7002	297.39081	966.75891	-882.57874	1270.8135	26.296663	346.4986	1226.4348	26.27076	-1876.9785	323.05133	39.83379	-1019.6556	128.14818	43.456394	-1043.3265	165.07501	34.821564	-1113.6801	140.17923	42.679771	-1079.9849	326.26279	45.844303	-745.15778	134.38771	46.344261	-736.45935	169.95728	33.447823	-662.79657	143.16347	45.934132	-698.04187	276.69043	72.956497	-778.68085	232.9734	456.90103	-829.26447	219.40915	454.01813	-721.60211	278.80188	69.165504	-700.99646	290.31561	209.66806	-691.57355	313.9552	271.01468	-691.56262	263.51962	268.21423	-684.64954	301.5712	314.34714	-687.34161	275.16483	68.383209	-994.10541	235.35211	446.61145	-935.55164	220.67198	461.38065	-1041.45	284.67398	72.259132	-1068.6045	257.16736	319.33453	-1082.8385	307.61551	314.03821	-1077.2798	276.64633	256.19925	-1081.4285	241.85551	784.00153	-1060.2467	243.0096	635.27466	-1064.7065	191.54077	637.11914	-1066.8451	219.34238	697.13043	-1070.311	238.54276	778.98315	-699.06683	236.41643	646.52826	-694.91711	185.84958	637.49152	-693.65198	200.29214	701.23767	-689.6087	129.89342	1592.943	-775.10675	240.64882	1575.9658	-786.06482	252.26012	1571.5437	-909.55719	262.47623	1391.4197	-857.66577	285.38147	1007.6921	-877.69196	139.909	1328.5188	-872.72394	243.79233	1380.8866	-724.74329	236.07201	1397.0549	-986.67413	163.94345	1357.7629	-222.49672	204.55247	1353.266	-222.09793	150.5024	1337.1207	-130.60103	240.59158	1389.5426	-1500.5029	287.48083	1383.4248	-1499.627	234.85977	1391.7755	-1590.6497	292.88065	1330.1699	-1271.1818	254.61716	1296.5795	-1271.7158	219.98712	1299.9999	-453.86252	179.17155	1277.5631	-466.6608	236.11232	1353.7605	-505.81342	200.23077	1371.3444	-536.35126	237.2516	1362.2579	-584.99231	265.78842	1382.5493	-1205.625	256.49612	1384.2811	-1143.9119	215.61566	1385.5389	-1212.1324
75	0.37	133.60062	918.02338	-762.53223	129.35999	918.65717	-984.89362	309.09183	950.414	-912.6178	308.24826	953.62726	-852.70612	297.3587	966.76288	-882.57666	1270.8253	26.308435	346.51678	1226.4359	26.273396	-1876.9753	323.05261	39.825577	-1019.6573	128.14804	43.446686	-1043.3345	165.0705	34.821236	-1113.6777	140.17802	42.674747	-1079.9814	326.26273	45.847076	-745.16418	134.37946	46.339611	-736.45654	169.95512	33.465118	-662.79449	143.16728	45.923901	-698.0462	276.69244	72.960953	-778.68182	232.94543	456.90073	-829.26782	219.38892	454.01227	-721.60168	278.79172	69.161896	-700.98846	290.29898	209.66707	-691.57648	313.98459	271.36191	-691.23596	263.51596	268.23108	-684.65393	301.57718	314.36835	-687.32159	275.16422	68.380516	-994.1156	235.33	446.60651	-935.55115	220.64897	461.38037	-1041.4562	284.66348	72.255356	-1068.6072	257.14828	319.3389	-1082.85	307.60504	314.0575	-1077.2784	276.62567	256.198	-1081.4336	241.84052	783.99695	-1060.2478	243.03589	635.4082	-1064.8525	191.5154	637.12042	-1066.8575	219.3112	697.11298	-1070.314	238.52271	778.97412	-699.06592	236.46521	646.57935	-695.49036	185.82338	637.48248	-693.68927	200.24005	701.21729	-689.6087	129.88713	1592.9447	-775.1123	240.65002	1575.9558	-786.0498	252.27249	1571.5431	-909.53949	262.48187	1391.4144	-857.67676	285.35196	1007.6824	-877.69257	139.91017	1328.5247	-872.72723	243.79799	1380.9066	-724.75439	236.07756	1397.0514	-986.68079	163.95512	1357.7469	-222.49677	204.5672	1353.2474	-222.10413	150.51392	1337.0966	-130.61171	240.62451	1389.5043	-1500.5067	287.50174	1383.3951	-1499.6364	234.88351	1391.7306	-1590.6606	292.8858	1330.1577	-1271.1749	254.61731	1296.5674	-1271.7123	219.98018	1299.9958	-453.87827	179.17363	1277.5575	-466.66263	236.12488	1353.772	-505.81253	200.22263	1371.3508	-536.37567	237.31065	1362.4067	-584.97931	265.79547	1382.5782	-1205.6042	256.49631	1384.2681	-1143.9111	215.6183	1385.5336	-1212.1373
76	0.375	133.57854	918.021	-762.53693	129.32881	918.65765	-984.88867	309.06274	950.41553	-912.61377	308.23126	953.61456	-852.68939	297.32599	966.76038	-882.57318	1270.8099	26.280645	346.48785	1226.4305	26.27536	-1876.9722	323.05386	39.831631	-1019.6631	128.14503	43.449757	-1043.3325	165.06209	34.825226	-1113.6877	140.18199	42.678322	-1079.9836	326.26477	45.845741	-745.17084	134.38202	46.340511	-736.45966	169.95546	33.45697	-662.79224	143.16792	45.930328	-698.05054	276.69086	72.962509	-778.68103	232.95377	456.88718	-829.25916	219.3764	454.00943	-721.6087	278.80286	69.163292	-700.99072	290.28732	209.67136	-691.57697	313.97876	271.37189	-691.23969	263.48767	268.22723	-684.65369	301.56418	314.37549	-687.32812	275.15765	68.376953	-994.11365	235.30731	446.61319	-935.55426	220.62682	461.37933	-1041.453	284.67264	72.254074	-1068.6088	257.13644	319.32794	-1082.8555	307.58105	314.04929	-1077.2837	276.60861	256.20267	-1081.439	241.78741	783.99091	-1060.2477	242.95464	635.26086	-1064.6882	191.49319	637.10742	-1066.8646	219.31871	697.1145	-1070.3036	238.49019	778.9743	-699.07086	236.50244	646.80981	-694.76288	185.8008	637.48206	-693.69836	200.23323	701.21387	-689.60632	129.8763	1592.9431	-775.11157	240.65785	1575.953	-786.03473	252.28891	1571.5375	-909.53467	262.51068	1391.3964	-857.66138	285.32632	1007.6747	-877.68457	139.9272	1328.5282	-872.73627	243.81247	1380.9027	-724.74927	236.07265	1397.0448	-986.68585	163.97887	1357.7311	-222.50273	204.56709	1353.2209	-222.10385	150.52516	1337.0641	-130.60602	240.65086	1389.4613	-1500.5151	287.53406	1383.3417	-1499.6178	234.93108	1391.6704	-1590.6785	292.8869	1330.1368	-1271.175	254.60815	1296.55	-1271.7163	219.99783	1299.9902	-453.88147	179.1806	1277.5479	-466.67456	236.13948	1353.7537	-505.82291	200.23633	1371.3462	-536.36322	237.35213	1362.4325	-584.95435	265.80118	1382.524	-1205.6157	256.48798	1384.255	-1143.9176	215.62854	1385.514	-1212.1428
77	0.38	133.54572	918.01849	-762.53058	129.29971	918.65759	-984.89624	309.0322	950.40948	-912.6203	308.19711	953.62109	-852.69891	297.29782	966.75262	-882.56818	1270.8446	26.313734	346.4682	1226.4266	26.265862	-1876.9553	323.04813	39.832092	-1019.6617	128.13782	43.457611	-1043.3387	165.06331	34.822174	-1113.6887	140.17517	42.680344	-1079.9849	326.25137	45.839386	-745.17719	134.37817	46.339935	-736.46301	169.95747	33.450634	-662.80402	143.1656	45.926491	-698.04761	276.69882	72.961235	-778.6806	232.90942	456.88559	-829.2605	219.36281	454.0127	-721.61108	278.79126	69.153534	-700.99463	290.28922	209.66956	-691.58441	313.87485	271.26593	-691.39911	263.48917	268.22162	-684.65607	301.50998	314.3746	-687.35486	275.1597	68.381241	-994.11786	235.28368	446.6098	-935.55316	220.61952	461.37595	-1041.4517	284.67307	72.260406	-1068.6135	257.12717	319.32855	-1082.858	307.56769	314.05505	-1077.2852	276.59424	256.19821	-1081.4321	241.77654	783.99762	-1060.2509	242.98354	635.4223	-1064.8419	191.47324	637.12054	-1066.8861	219.29579	697.0874	-1070.2925	238.4408	778.97076	-699.06842	236.44223	646.5658	-695.39191	185.79163	637.47424	-693.69092	200.20587	701.18896	-689.62402	129.87486	1592.948	-775.11945	240.64645	1575.975	-786.02728	252.30927	1571.5404	-909.51788	262.50903	1391.3868	-857.66272	285.29803	1007.6709	-877.68323	139.93988	1328.5243	-872.73047	243.79825	1380.8716	-724.76013	236.07985	1397.0403	-986.69348	163.99503	1357.7111	-222.5042	204.57111	1353.2036	-222.11671	150.53664	1337.026	-130.61432	240.67378	1389.4207	-1500.524	287.56302	1383.3154	-1499.6234	234.94461	1391.615	-1590.688	292.88986	1330.124	-1271.1682	254.64612	1296.5326	-1271.6968	219.99579	1299.9825	-453.89993	179.18834	1277.5519	-466.68286	236.1424	1353.7506	-505.82324	200.25655	1371.3353	-536.37109	237.34183	1362.2307	-584.99249	265.80374	1382.5461	-1205.6088	256.49515	1384.2496	-1143.9169	215.62747	1385.506	-1212.1488
